{"title":"Paradox.2016.WEBRip.480p.x264.AAC-VYTO [P2PDL]","uid":14397398,"size":375188507,"categoryP":"video","categoryS":"movies","magnet":"?xt=urn:btih:723d46c03657cc65e96f91c7a05c70b5a19f94e6&amp;dn=Paradox.2016.WEBRip.480p.x264.AAC-VYTO+%5BP2PDL%5D&amp;tr=udp%3A%2F%2Ftracker.leechers-paradise.org%3A6969&amp;tr=udp%3A%2F%2Fzer0day.ch%3A1337&amp;tr=udp%3A%2F%2Fopen.demonii.com%3A1337&amp;tr=udp%3A%2F%2Ftracker.coppersurfer.tk%3A6969&amp;tr=udp%3A%2F%2Fexodus.desync.com%3A6969","seeders":1,"leechers":0,"uploader":"VYTOP2PDL","files":6,"time":1461357343,"description":"____    ____ ____    ____ .___________.  ______   \r\n     /   /      /   / |           | /  __    \r\n    /   /      /   /  `---|  |----`|  |  |  | \r\n        /     _    _/       |  |     |  |  |  | \r\n       /        |  |         |  |     |  `--'  | \r\n    __/         |__|         |__|      ______/  \r\n                                                  \r\nPresenting Small Encodes with quality for years!\r\n                                                                                                   \r\n                                                                                                   \r\n\r\n\r\nParadox.2016.WEBRip.480p.x264.AAC-VYTO\r\n\r\n\r\nGenre: Action, Drama  \nhttp://www.imdb.com/title/tt4540434/\r\n\r\n\r\nFormat                                   : MPEG-4\r\nFile size                                : 351 MiB\r\nDuration                                 : 1h 29mn\r\nOverall bit rate                         : 546 Kbps\r\n\r\nVideo\r\nFormat                                   : AVC\r\nBit rate                                 : 503 Kbps\r\nWidth                                    : 720 pixels\r\nHeight                                   : 400 pixels\r\nDisplay aspect ratio                     : 16:9\r\nFrame rate mode                          : Constant\r\nFrame rate                               : 23.976 (24000/1001) fps\r\nBit depth                                : 8 bits\r\nStream size                              : 323 MiB (92%)\r\nWriting library                          : x264\r\n\r\nAudio\r\nFormat                                   : AAC\r\nBit rate mode                            : Variable\r\nBit rate                                 : 40.0 Kbps\r\nChannel(s)                               : 2 channels\r\nChannel positions                        : Front: L R\r\nSampling rate                            : 48.0 KHz\r\nStream size                              : 25.7 MiB (7%)\r\nLanguage                                 : English\r\n\r\nSubtitle                                 : N/a\r\n\r\nScreen Shots: (Click links to view)\r\n\r\n\r\n----------------------------------------------------------------------------------------------------\r\n\r\n\r\nEncoder Notes: Looking For Early Access To Anything You Can Provide WEBDL, DVDScr, DVDR, BluRay,\r\nDirect Audio, Music Releases and Seedboxes. If You Got anything to offer please contact us.\r\n\r\nSupport us by donating BC - 1FgwdzPsd1y25Gea8wP1qni35uGCtmkRCD\r\n\r\nFind us and join us!","torrent":{"xt":"urn:btih:723d46c03657cc65e96f91c7a05c70b5a19f94e6","amp;dn":"Paradox.2016.WEBRip.480p.x264.AAC-VYTO+%5BP2PDL%5D","amp;tr":["udp%3A%2F%2Ftracker.leechers-paradise.org%3A6969","udp%3A%2F%2Fzer0day.ch%3A1337","udp%3A%2F%2Fopen.demonii.com%3A1337","udp%3A%2F%2Ftracker.coppersurfer.tk%3A6969","udp%3A%2F%2Fexodus.desync.com%3A6969"],"infoHash":"723d46c03657cc65e96f91c7a05c70b5a19f94e6","infoHashBuffer":{"type":"Buffer","data":[114,61,70,192,54,87,204,101,233,111,145,199,160,92,112,181,161,159,148,230]},"announce":[],"urlList":[]}}